<svg xmlns="http://www.w3.org/2000/svg" width="97" height="100" fill="none"><path fill="#CE0E2D" d="M88.28 0H12.2C10.98 0 10 .97 10 2.16v74.79c0 1.2.98 2.16 2.2 2.16h76.08c1.21 0 2.2-.97 2.2-2.16V2.16c0-1.2-.99-2.16-2.2-2.16Z"/><path fill="#fff" d="M64.93 44H62.7a1.48 1.48 0 0 0-1.38 1.56v8.69H51.26V31.5a1.5 1.5 0 0 0-1.39-1.58h-2.22a1.49 1.49 0 0 0-1.4 1.58v36.2a1.48 1.48 0 0 0 1.4 1.57h2.22c.4-.02.76-.2 1.02-.5s.4-.68.37-1.07v-8.53h10.06v8.53a1.47 1.47 0 0 0 1.39 1.57h2.22c.4-.02.77-.2 1.03-.5.27-.3.4-.68.37-1.07V45.56a1.5 1.5 0 0 0-1.4-1.57Zm-7.78-27.33c0-4.49-2.18-11.56-3.13-11.55-.93 0-3.12 7.06-3.12 11.55 0 3.87 1.63 4.56 2.68 4.68a3.37 3.37 0 0 0 .9 0c1.04-.12 2.67-.8 2.67-4.68ZM36.84 42.28c-4.57 0-11.76 2.14-11.76 3.07 0 .92 7.19 3.07 11.76 3.07 3.94 0 4.63-1.6 4.76-2.63.02-.15.03-.3.02-.44 0-.15 0-.3-.02-.44-.13-1.03-.82-2.63-4.76-2.63Zm3.69-18.18c-3.95-2.25-11.27-3.93-11.74-3.13-.48.8 4.65 6.2 8.61 8.45 3.4 1.94 4.83.9 5.45.06.09-.11.16-.23.22-.36.08-.12.15-.25.2-.39.44-.96.65-2.69-2.74-4.63Zm-3.41 8.45c-4.54-.47-11.92.93-12.02 1.84-.1.9 6.82 3.8 11.36 4.28 3.92.41 4.79-1.11 5.02-2.12a3.3 3.3 0 0 0 .1-.87c-.02-1.05-.54-2.72-4.46-3.13ZM47.9 18.17c-2.28-3.9-7.77-8.95-8.58-8.48-.81.45.88 7.64 3.16 11.54 1.96 3.36 3.73 3.15 4.7 2.75a3.15 3.15 0 0 0 .76-.44c.86-.62 1.92-2.02-.04-5.37ZM36.84 51.9c-4.57 0-11.76 2.14-11.76 3.06 0 .92 7.19 3.08 11.76 3.08 3.94 0 4.63-1.6 4.76-2.64.02-.14.03-.29.02-.44 0-.14 0-.29-.02-.44-.13-1.02-.82-2.63-4.76-2.63Z"/><path fill="#000" d="M86.43 99.42a.23.23 0 0 1-.15-.09.34.34 0 0 1-.05-.2v-10.6c0-.05.01-.1.05-.16.05-.08.18-.1.3-.1h2.16c.06 0 .1.03.15.07.08.05.15.12.2.2l4.75 6.13c.09.12.2.26.24.26l.05-.02a.08.08 0 0 0 .03-.05 1881.92 1881.92 0 0 1 .04-6.47.17.17 0 0 1 .04-.06.27.27 0 0 1 .19-.05c.05 0 2.18.02 2.3 0 .08.01.15.04.21.08l.05.07v10.75c.02.07 0 .14-.03.2-.06.06-.24.06-.28.06H94.6c-.11 0-.22-.02-.33-.05a.82.82 0 0 1-.18-.18l-4.84-6.26s-.1-.16-.16-.13c-.03 0-.04.04-.04.09v6.37a.2.2 0 0 1-.05.07.25.25 0 0 1-.17.07h-2.41Zm-35.73-.56-2.88-10.51c-.03-.12-.16-.2-.37-.2L43 88.1a.35.35 0 0 0-.3.2c-1.17 4.72-1.95 6.76-3 10.55a.32.32 0 0 0 .01.32.37.37 0 0 0 .33.13h1.85c.08.01.17-.01.24-.06a.4.4 0 0 0 .15-.15l.4-1.3h4.98L48 99.1a.3.3 0 0 0 .15.16c.07.04.15.07.23.07h1.96a.42.42 0 0 0 .33-.14.36.36 0 0 0 .02-.32Zm-3.69-3.36h-3.67c.33-1.36.88-2.9 1.35-4.64a.18.18 0 0 1 .17-.12c.36 0 .24-.02.68-.02a.2.2 0 0 1 .16.14c.41 1.6 1.35 4.65 1.31 4.65Zm36.16-3.36a5.63 5.63 0 0 0-.66-1.5 5.04 5.04 0 0 0-4.57-2.4c-.67-.01-1.33.1-1.97.3a4.86 4.86 0 0 0-2.62 2.1c-.29.46-.5.97-.65 1.5a6.3 6.3 0 0 0 .65 4.78 5.04 5.04 0 0 0 2.62 2.09c.63.2 1.3.31 1.96.3a5.16 5.16 0 0 0 3.48-1.15 5.31 5.31 0 0 0 1.74-2.76c.3-1.07.3-2.2 0-3.27h.02Zm-2.77 2.72a2.67 2.67 0 0 1-1.3 1.57 2.73 2.73 0 0 1-2.29 0c-.32-.15-.6-.38-.81-.65a2.78 2.78 0 0 1-.5-.92 3.38 3.38 0 0 1-.05-1.92 2.78 2.78 0 0 1 .84-1.45c.21-.2.46-.35.74-.45a2.8 2.8 0 0 1 1.87 0 2.44 2.44 0 0 1 1.26 1.1 3.42 3.42 0 0 1 .43 1.65c0 .37-.08.73-.2 1.07ZM37.22 95.9a2.6 2.6 0 0 1-.43 1.48c-.32.45-.73.82-1.22 1.09-.6.28-1.22.5-1.87.64-.79.18-1.6.28-2.4.3-1.1.01-2.2-.05-3.3-.2a5.55 5.55 0 0 1-.7-.14 1.09 1.09 0 0 1-.41-.22c-.08-.08.04-1.8.04-1.93 0-.13.03-.18.1-.2.14-.12.37-.04.53-.02.16.02 2.46.32 3.7.35.41.02.82 0 1.22-.06.25-.03.5-.1.74-.19.15-.06.3-.16.4-.28a.66.66 0 0 0 .2-.43c0-.24-.01-.4-.2-.55a2.26 2.26 0 0 0-.71-.37c-.97-.32-1.7-.48-2.66-.77-.4-.13-.84-.26-1.24-.42-.36-.15-.7-.33-1.02-.56-.3-.24-.55-.53-.74-.86-.2-.37-.29-.79-.28-1.2 0-.47.13-.92.38-1.3a3.1 3.1 0 0 1 1.1-1.03c.53-.3 1.12-.52 1.73-.65.77-.17 3.18-.2 4.02-.13a9 9 0 0 1 2.14.35c.04.02.06.02.07.08v.18c.02.47 0 1.4 0 1.5a.4.4 0 0 1-.09.23.4.4 0 0 1-.16.13.58.58 0 0 1-.23.05c-.06 0-2.12-.3-3.36-.31a5.28 5.28 0 0 0-1.86.21c-.16.06-.3.15-.42.27a.4.4 0 0 0-.14.3.69.69 0 0 0 .3.57c.18.16.53.26.85.39.32.12.95.26 1.35.36.4.1.83.16 1.24.29.42.12.82.26 1.21.42.39.15.75.35 1.08.6.3.23.56.52.76.85.2.36.3.77.28 1.17Zm-18.47 3.43c.73 0 1.46-.09 2.17-.26.62-.15 1.2-.4 1.74-.74.48-.3.87-.7 1.16-1.18.28-.48.43-1.02.42-1.58v-7.05a.24.24 0 0 0-.12-.18.45.45 0 0 0-.3-.1l-2.15.03a.6.6 0 0 0-.3.1.25.25 0 0 0-.13.19v7.05c0 .23-.07.45-.2.65a1.8 1.8 0 0 1-.54.45 2.8 2.8 0 0 1-.75.27 5.1 5.1 0 0 1-2.19-.13 2.4 2.4 0 0 1-.86-.5c-.22-.22-.43-.48-.43-.8v-7.03a.24.24 0 0 0-.13-.18.45.45 0 0 0-.3-.1h-2.15a.46.46 0 0 0-.32.1.25.25 0 0 0-.12.18v7.05c0 .55.15 1.09.43 1.55.3.48.7.89 1.18 1.19.54.34 1.13.6 1.75.75.7.17 1.42.26 2.14.27ZM8.12 88.24a.5.5 0 0 0-.3.09.23.23 0 0 0-.12.18v4.06l-4.68-.01V88.5a.21.21 0 0 0-.12-.18.44.44 0 0 0-.3-.1l-2.18.02a.5.5 0 0 0-.3.09.24.24 0 0 0-.12.18v10.54a.22.22 0 0 0 .12.18.4.4 0 0 0 .3.1l2.18-.02a.6.6 0 0 0 .3-.1.23.23 0 0 0 .12-.17v-4.22l4.68.02v4.21a.2.2 0 0 0 .12.18c.09.07.2.1.3.1h2.19c.1 0 .2-.03.28-.1a.22.22 0 0 0 .12-.18V88.51a.23.23 0 0 0-.12-.18.48.48 0 0 0-.28-.1H8.12Zm55.85 10.69-1.38-2.13c-.23-.34-.49-.72-.73-1.1l-.74-1.13c.5-.13.97-.33 1.4-.6.4-.24.74-.57 1-.96.24-.43.37-.93.36-1.42a2.76 2.76 0 0 0-1.2-2.34 4.83 4.83 0 0 0-1.16-.58 7.1 7.1 0 0 0-1.25-.3c-.4-.05-.77-.1-1.1-.12-.31-.02-.55-.01-.72-.01h-4.5a.68.68 0 0 0-.33.08.25.25 0 0 0-.12.2v10.53a.25.25 0 0 0 .12.18c.11.06.23.09.36.08h2.04a.7.7 0 0 0 .35-.08.26.26 0 0 0 .14-.18v-4.16h1.26l2.76 4.25a.2.2 0 0 0 .1.08l.15.07.17.02h2.6c.14.01.28-.03.38-.11a.21.21 0 0 0 .07-.13c0-.05 0-.1-.03-.14Zm-3.44-6.68a1.3 1.3 0 0 1-.57.33c-.2.08-.43.13-.65.15l-.56.03h-2.24V90.5h2.24l.37.03.52.08c.18.04.36.1.53.2.17.07.31.19.42.33a.8.8 0 0 1 .17.51.81.81 0 0 1-.23.61Zm7-3.95a.57.57 0 0 0-.33.07.22.22 0 0 0-.13.2v10.52c0 .04.02.08.05.11l.08.08c.11.06.23.1.36.09h2.04c.12 0 .24-.03.35-.1.1-.05.16-.1.16-.16V88.62c0-.15-.06-.18-.06-.18a.49.49 0 0 0-.38-.15c-.36 0-1.96.02-2.14 0Z"/></svg>
