<svg xmlns="http://www.w3.org/2000/svg" width="2500" height="2382" viewBox="-1.1 -0.3 961 916.2"><path fill="#24292f" d="M674.8 853.1a41.8 41.8 0 1 1 68.8-47.5 41.7 41.7 0 0 1-42 64.5 41.8 41.8 0 0 1-26.8-17zm-240.2 50.8a25.4 25.4 0 0 1-4.1-19.3 25.8 25.8 0 1 1 4.1 19.3zm299.6-690.1a175 175 0 0 1 25.4 54.7 179 179 0 0 1 5.5 60.1 98 98 0 0 1 52.7 37.3 98.5 98.5 0 0 1-17.4 132.2c48.4 77 28.1 179-47.5 231.2a169 169 0 0 1-103.2 29.5 116 116 0 0 1-46.5 67.6 116.5 116.5 0 0 1-144-9.7l-3.1 2.7-1.1 1-1 .9-1.1.9-1.1.8a155.9 155.9 0 0 1-216.7-39.6q-6.4-9.3-11.4-19.4-5-10.1-8.4-20.8-3.5-10.8-5.4-21.9-1.9-11.1-2.1-22.4a144 144 0 0 1-98.5-63.8 145.2 145.2 0 0 1 24.1-185.7A134.7 134.7 0 0 1 171 267.2c18-12.5 38-19.3 58.3-22a196.8 196.8 0 0 1 29.8-52.8 206.1 206.1 0 0 1 44.1-41.4c69-47.7 157-45.9 223.4-3.4a178.7 178.7 0 0 1 207.6 66.2zM62.6 405.3A39.8 39.8 0 0 1 73 460.9a39.8 39.8 0 0 1-55.5 10.3 39.6 39.6 0 0 1-10.4-55.5 40.2 40.2 0 0 1 55.5-10.4zm154.7-244.2a30.4 30.4 0 0 1-49.9 34.5 30 30 0 0 1-4.9-22.7 30 30 0 0 1 12.6-19.5 30.6 30.6 0 0 1 22.6-4.9c8 1.5 15 6 19.6 12.6zM274.7 1a21 21 0 0 1 16.2 2.8 21 21 0 0 1 6.4 29.6 21 21 0 0 1-13.6 9.2 22 22 0 0 1-15.8-3.1 21.9 21.9 0 0 1-9.1-13.3 21.9 21.9 0 0 1 2.8-15.8c3-4.7 7.7-8.1 13.1-9.4zm241.6 30.8a39.2 39.2 0 0 1 53.4 14.1c5.4 8.9 7 19.4 4.6 29.5a39.2 39.2 0 0 1-17.2 24.3 39.9 39.9 0 0 1-54.4-13.6 39.4 39.4 0 0 1 13.6-54.3zM166.5 762.3a18.4 18.4 0 0 1-22-14.2c-1.1-4.8-.2-9.8 2.5-14 2.7-4.1 6.9-7 11.7-8.1 4.8-1 9.8-.1 14 2.6a18 18 0 0 1 8 11.7 18.4 18.4 0 0 1-14.2 22zm692.6-504.9a34 34 0 0 1-7.8 48 34 34 0 0 1-47.7-9.7 33.4 33.4 0 0 1-4.6-24.8 33.3 33.3 0 0 1 13.9-21.1c7.2-5 16-7 24.6-5.5a33.5 33.5 0 0 1 21.6 13.1zM886 482.5a25.3 25.3 0 0 1 29 19.5 25 25 0 0 1-18.3 29.6 25.1 25.1 0 0 1-10.7-49.1zm50.3-116.1c4.9-1.2 10-.3 14.3 2.4a19 19 0 0 1 8.3 11.8c1 5 .1 10.1-2.7 14.3s-7.1 7.1-12 8a19 19 0 0 1-13.9-2.7 18.8 18.8 0 0 1-5.5-25.6 19 19 0 0 1 11.5-8.2z"/><path fill="#fff" d="M636.3 607.1c17.8 2.5 35.5 5 38.3 22.9 7.5 47.8-85.2 30-106.4 19.7-33.3-16.3-53.5-53.5-44.8-90.3 3.3-14.2 21.3-51 38.2-85.7 15.9-32.4 30.8-62.9 32-71.3 2.3-17.6-7.1-19.1-13-19.4-7.5-.4-13.5 3.3-20.9 14.5-4.7 7.1-42.4 81.8-67.6 131.7a2948 2948 0 0 1-22.3 44c-11.8 22.4-26.7 27.7-41.7 27-21.9-1.2-31.9-12.9-28.7-34 .8-5.6 11.5-31.7 23-59.9 13.6-33.4 28.4-69.7 29.8-79 1.5-10.5-.6-21.7-11-27.1-10.5-5.4-22.9 2.9-26.6 9.1a2646 2646 0 0 0-37 92 3113.5 3113.5 0 0 1-44.1 109.3c-12.7 23-26 30.3-46 31.3-47.4 2.2-82.6-36.8-67.1-84.5l7.5-24.7c15.6-52.3 49.4-165.6 68.2-199 15.5-27.6 58.7-48.6 88.6-35.7 9.8 4.3 22.1 10.2 31.3 14.6l12 5.7c12.8 5.6 26.4-7.1 33.8-14l2.7-2.5 2.1-1.9c5.5-4.7 10.9-9.5 17.5-12.3a58.6 58.6 0 0 1 28.5-3.3 35.8 35.8 0 0 1 18 7.6 180 180 0 0 1 14.3 12.8l3 2.8c8.8 8.4 15.3 4.4 20 1.6l1.2-.8.3-.1c8.2-4.8 14.8-8.6 39.1-8.2 25.3.5 54.4 9.5 60.4 52.6 3.3 23.3-15.1 64.4-34.3 107.1-20.2 45.1-41.3 92.1-38.2 121.5 2.2 20.7 21.1 23.3 39.9 25.9z"/></svg>
