<svg xmlns="http://www.w3.org/2000/svg" width="1110" height="318"><path d="M399.1 525.01v50.15h-20.64v-50.15h-28.45v130h28.45v-50.63h20.64V655h28.7V525Zm13.28 67.68v46.98l-10.91 11.2v-47.23zm0-52.58v47.22l-10.91-11.2v-47.22zm-9.25-12.9h20.4l-10.2 10.46zm3.08 63.78h4.5l-2.36 2.43zm.48 3.9-3.09 3.4-7.35-7.3h6.64zm-2.85 57.69h-.71l.47-.49zm4.5-5.36 5.46 5.36h-6.64l-2.13-1.95zm4.99-5.11 10.2 10.47h-6.65l-6.87-7.06zm1.18-8.76 10.91 11.2v6.57l-10.9-10.96zm0-10.23 10.91 11.2v6.82l-10.9-11.2zm0-9.98 10.91 11.2v6.57l-10.9-10.95zm0-10.22 10.91 11.2v6.81l-10.9-11.2zm0-9.99 10.91 11.2v6.58l-10.9-10.96zm0-10.22 10.91 11.2v6.81l-10.9-11.2zm0-9.98 10.91 11.2v6.57l-10.9-10.95Zm0-10.23 10.91 11.2v6.82l-10.9-11.2Zm0-9.98 10.91 11.2v6.57l-10.9-10.95zm0-10.22 10.91 11.2v6.81l-10.9-11.2zm3.8-6.33 7.11 7.55v6.57L415 539.38zm4.74-4.87 2.37 2.2v6.8l-5.45-5.84zm2.37-2.43v1.46l-.71-.73zm-14.94 59.88h-43.4l10.67-10.95h21.82zm-16.36 13.64h-6.64l-10.91-11.2h6.64zm-17.79-68.9v6.82l-5.7-5.6 3.33-3.4zm0 10.23v6.57l-10.67-10.71 3.32-3.4zm0 16.8-10.9-11.2v-6.82l10.9 11.2zm0 3.4v6.58l-10.9-10.96v-6.82zm0 70.6v6.82l-10.9-11.2v-6.82zm-9.01-49.42-1.9 1.95v-4.14zm-1.9-5.35v-6.82l6.88 7.06-3.32 3.4zm0-10.23v-6.82l10.91 11.2v2.2l-2.37 2.18zm10.91-40.65v1.46l-.71-.73zm-22.3-1.47h20.4l-10.2 10.47zm9.02 112.47-10.67 11.2V528.91l10.67 11.2zm-8.3 12.9h-.71l.24-.48zm4.5-5.35 5.22 5.36h-6.64l-1.9-1.95zm4.99-5.11 10.2 10.47h-6.65l-6.87-7.06zm1.18-8.76 10.91 11.2v6.57l-10.9-10.96zm0-20.21 10.91 11.2v6.57l-10.9-10.95zm0-10.23 10.91 11.2v6.82l-10.9-11.2zm0-3.16v-6.82l10.91 11.2v6.57zm1.42-8.76h6.4l10.92 11.2h-6.64zm19.69 0h6.4l9.01 9-1.9 2.2h-2.84zm133.43-47.96c-.12-5.12-1.83-9.37-5.13-12.75-3.3-3.38-7.43-5.14-12.42-5.27h-42.69a17.31 17.31 0 0 0-12.42 5.27c-3.3 3.38-5 7.63-5.12 12.75V655h28.45v-30.19h20.87v30.2h28.46zm-15.41 69.87v27.02l-10.91 11.2v-27.27zm-18.26 9.49h-6.64l-10.91-11.2h6.64zm-16.13-24.59h21.58l10.91 11.2h-43.4zm-23.24 55.02h-.71l.23-.49zm4.5-5.6 5.22 5.6H450l-1.9-2.19zm4.98-5.11 10.2 10.71h-6.64l-6.88-7.3zm41.98-30.94h4.51l-2.37 2.44zm6.17-69.13v65.48l-10.9-11.2v-43.09zm-5.93-1.22h4.03l-2.13 1.95zm.48 3.65-3.32 3.4-7.12-7.05h6.64zm-4.98 5.11-2.38 2.44h-1.9l-10.9-11.2h6.64zm-2.61 45.77h-20.87v-41.14h20.87zm-4.98-43.33h-6.64l-10.91-11.2h6.64zm-9.96 0h-6.4l-10.92-11.2h6.64zm-8.07 82.52v6.58l-10.9-10.96v-6.81zm-10.9-71.81 10.9 10.95v6.82l-10.9-10.95zm10.9 28-10.9-11.2v-6.82l10.9 11.2zm-10.9-38.23 10.9 11.2v6.82l-10.9-11.2zm2.13 52.59-2.14 2.19v-4.14zm-2.14-5.36v-6.81l6.88 7.3-3.32 3.16zm0-9.98v-6.81l10.91 10.95v2.2l-2.37 2.43zm10.91-29.46-10.9-10.95v-6.82l10.9 10.96zm-10.9 73.04 10.9 11.2v6.81l-10.9-11.2zm0-20.2 10.9 11.19v6.82l-10.9-11.2zm41.5 2.18-3.32 3.41-7.36-7.55h6.64zm-3.09 37.5h-.7l.47-.5zm4.5-5.6 5.46 5.6h-6.64l-1.9-2.2zm4.99-5.12 10.2 10.71h-6.64l-6.88-7.3zm1.42-8.76 10.67 11.2v6.81l-10.67-11.2zm0-9.98 10.67 11.2v6.57l-10.67-10.96zm0-10.23 10.67 11.2v6.82l-10.67-11.2zm0-9.98 10.67 10.96v6.81l-10.67-10.95zm0-10.22 10.67 11.2v6.81l-10.67-11.2zm0-9.99 10.67 10.96v6.82l-10.67-10.96zm0-10.22 10.67 11.2v6.81l-10.67-11.2zm0-9.98 10.67 10.95v6.82l-10.67-10.95zm0-10.23 10.67 11.2v6.82l-10.67-11.2zm0-9.98 10.67 10.96v6.81l-10.67-10.95zm3.56-6.57 7.11 7.55v6.81l-10.43-10.95Zm3.32-3.4a22.86 22.86 0 0 1 2.22 3.46 13.6 13.6 0 0 1 1.34 3.84l-5.22-5.36zm-11.38-5.36c1.9.01 3.67.35 5.3 1a15.8 15.8 0 0 1 4.42 2.65l-7.11 7.54h-48.15l-7.11-7.3a14.46 14.46 0 0 1 9.96-3.9h42.69zm-47.2 12.9v99.81l-10.67 11.2V543a16.51 16.51 0 0 1 3.56-10.22zm3.8 71.08h6.64l10.67 11.2h-6.64zm19.68 0h6.64l8.78 9.25-1.9 1.95h-2.85zm104.98 14.63h-20.87v-71.57h20.87v20.2l28.46-6.81v-24.6c-.12-5.1-1.83-9.36-5.13-12.74-3.3-3.38-7.43-5.14-12.42-5.27H551.9a17.31 17.31 0 0 0-12.42 5.27c-3.3 3.38-5 7.63-5.13 12.75V637c.13 5.11 1.84 9.36 5.13 12.75a17.26 17.26 0 0 0 12.42 5.26h42.69c4.99-.12 9.13-1.88 12.42-5.26 3.3-3.39 5-7.64 5.13-12.75v-41.4l-28.46 6.82zm20.63 23.13c-.6.6-1.24 1.1-1.92 1.52-.7.41-1.4.8-2.1 1.15l-9.73-9.98h6.64l7.11 7.3zm-18.5-43.58 10.91 5.84v26.78l-10.9-11.2zm2.14-1.46 19.45-4.63-9.73 9.74zm21.82 30.67V637c0 .62-.01 1.27-.06 1.94a7.12 7.12 0 0 1-.42 1.95l-10.2-10.7v-6.83zm-10.67-21.42 10.67 11.2v6.81l-10.67-11.2zm3.79-6.09 6.88 7.06v6.82l-10.2-10.47zm4.98-5.1 1.9 2.18v6.82l-5.22-5.6zm1.9-1.96v.73l-.24-.48zm-14.94 39.2h-43.4l10.9-11.2h21.59zm-46.25 13.14c-1.3-.35-2.5-.8-3.58-1.33a13.6 13.6 0 0 1-3.06-2.07l1.66-1.7zm0-10.22 10.2 10.71h-6.64l-6.88-7.3zm12.1-81.8-10.91-10.95v-6.82l10.9 10.96zm-10.91 69.87v-6.82l6.88 7.06-3.32 3.41zm0-37.25 10.9 11.2v6.82l-10.9-11.2zm10.9 28-10.9-10.96v-6.81l10.9 10.95zm-10.9-37.98 10.9 10.96v6.81l-10.9-10.95Zm0-10.22 10.9 11.2v6.81l-10.9-11.2zm0-9.98 10.9 10.95v6.82l-10.9-10.96zm0-10.23 10.9 11.2v6.82l-10.9-11.2zm0 67.43v-6.81l10.9 11.2v2.19l-2.36 2.19zm2.13 15.59-2.13 1.94v-4.14zm5.93 6.08 10.67 11.2h-6.64l-10.67-11.2zm9.72 0 10.91 11.2h-6.64l-10.9-11.2zm9.96 0 10.68 11.2h-6.64l-10.68-11.2zm-26.08-100.78h6.64l10.67 11.2h-6.4zm27.27 11.2h-6.64l-10.9-11.2h6.63zm-7.59-11.2h6.64l8.54 8.76-2.37 2.43h-1.9zm38.66 2.67v6.82l-10.44-10.95 3.32-3.41zm-13.05-1.46v17.04l-10.9 11.2v-17.04zm-4.03 24.35 2.85 2.92-5.46 1.22-.47-.73zm4.98-5.11 5.93 6.08-5.45 1.22-3.8-3.9zm10.2 5.1-1.66.25-2.6-2.68zm-8.77-13.87 10.67 11.2v.97l-10.67-5.84zm0-9.98 10.67 10.96v6.81l-10.67-10.95Zm-8.3-1.7h4.03l-2.14 1.94zm.47 3.65-3.32 3.4-7.11-7.05h6.64zm13.04-9.98 1.66-1.95c.85 1.1 1.59 2.25 2.23 3.47.63 1.22 1.08 2.5 1.33 3.83zm-9.72-7.3c1.9.01 3.67.34 5.3 1a15.8 15.8 0 0 1 4.42 2.65l-7.11 7.54h-48.14l-7.12-7.3a14.46 14.46 0 0 1 9.96-3.9h42.69zm-57.87 15.82a16.51 16.51 0 0 1 3.56-10.23l7.12 7.3v99.82l-7.12 7.3a16.51 16.51 0 0 1-3.56-10.22v-93.97zm43.88 98.6h6.64l10.43 10.7c-.9.29-1.93.45-3.08.49h-3.08zm18.5-1.47v-6.82l9.48 9.99a31.6 31.6 0 0 1-1.12 2.16c-.4.7-.9 1.36-1.49 1.97zm82.2-50.39L708.35 525h-29.4l-20.87 50.15H655V525h-28.46v130H655v-50.64h3.32L679.66 655h28.7zm2.86 36.27 17.07 17.77 2.85 6.58-14-10.96zm9.96.25 4.74 11.68-17.55-18.26-5.93-12.66zM667.55 590l.24-.73 18.97 19.23 4.75 11.93-18.98-19.47zm17.08-13.87-2.14 4.62-7.58-8.03 1.9-4.63zm-4.98-15.1 7.83 8.04-1.9 4.62-7.83-8.03zm3.08-7.06 7.83 8.04-2.14 4.62-7.59-8.03zm2.85-7.06 7.82 8.04-1.9 4.62-7.82-8.03zm3.08-7.06 7.83 8.04-2.14 4.62-7.59-7.79zm5.93-3.9 4.74 4.88-1.9 4.62-6.87-6.81zm5.7-4.13 1.89 1.95-1.9 4.62-3.8-3.9zm4.02-2.68-.95 2.2-.94-.98zm-22.53-1.95h20.87l-14.46 10.23zm-15.65 60.14-5.93-10.96 19.69-47.72 6.64 10.47zm-1.66 1.46h-21.1l10.9-11.2h3.8zm-11.62-55.51v6.82l-5.7-5.6 3.33-3.41zm0 10.22v6.58l-10.67-10.71 3.32-3.41zm0 16.8-10.9-11.2v-6.57l10.9 10.96zm-10.9 9.01v-6.82l10.9 11.2v2.2l-2.37 2.18zm1.89 15.58-1.9 1.95v-4.14zm-1.9-5.36v-6.81l6.88 7.06-3.32 3.4zm0-27.02 10.91 11.2v6.57l-10.9-10.95zm10.91 81.8v6.81l-10.9-11.2v-6.81zm0-105.66v1.46l-.71-.73zm-22.3-1.46h20.4l-10.2 10.47zm9.02 112.47-10.67 11.2V528.91l10.67 11.2zm-8.3 12.9h-.71l.24-.48zm4.5-5.35 5.22 5.36h-6.64l-1.9-2.2zm4.99-5.11 10.2 10.47h-6.65l-6.87-7.06zm1.18-8.77 10.91 10.96v6.82l-10.9-10.96zm0-20.2 10.91 10.95v6.82l-10.9-10.96zm0-10.23 10.91 11.2v6.82l-10.9-11.2zm0-9.98 10.91 11.2v6.57l-10.9-10.95zm1.42-1.7h6.65l9 9-.94 1.71h-4.03zm9.97 0h6.64l2.6 2.68-2.37 4.38zm9.72 0h1.18l-.47.49zm5.93-4.38 1.9-4.63 8.53 8.76 4.98 11.69zm2.84-7.06 1.9-4.63 7.83 8.03-1.9 4.63zm-5.69 12.41 22.06 48.2-7.36 10.96-20.63-48.45zm24.43 60.38h-7.83l3.32-4.87zm-3.32-6.82 2.6-3.65 13.05 10.47h-9.01zm59.46-19.95v-21.18h39.38v-29.46H746.7v-20.93h49.33V525h-77.79v130h77.79v-29.2zm-15.4-85.7v99.82l-10.68 11.2V528.9Zm31.3 11.94h-6.64l-10.91-11.2h6.64zm-.95-11.2 10.67 11.2h-6.4L755 540.84zm9.72 0 10.91 11.2h-6.64l-10.9-11.2zm9.96 0 10.67 11.2h-6.4l-10.9-11.2zm5.22-4.87 7.11 7.55v6.81l-10.43-10.95zm4.98-4.87 2.13 2.2v6.8l-5.45-5.6zm2.13-2.43v1.46l-.47-.73zm-60.7 9.73-10.68-11.2h69.49l-10.68 11.2zm11.61 75.71v6.82l-10.9-10.96v-6.81zm0-50.39v6.82l-10.9-11.2v-6.82zm-8.77 71.81-2.14 1.95v-4.14zm-2.14-5.35v-6.82l6.88 7.06-3.32 3.41zm0-10.23v-6.81l10.91 11.2v2.19l-2.37 2.19zm10.91-9-10.9-11.2v-6.82l10.9 11.2zm-8.77-26.05-2.14 2.19v-4.14zm-2.14-5.36v-6.81l6.88 7.06-3.32 3.4zm0-9.98v-6.81l10.91 10.95v2.2l-2.37 2.43zm0-20.2v-6.82l10.91 10.95v6.82zM723 652.57h-.7l.11-.12.12-.12zm4.5-5.35 5.23 5.35h-6.64l-1.9-1.94zm4.99-5.11 10.2 10.46h-6.64l-6.88-7.06zm9.25-.5 10.67 10.96h-6.64l-10.67-10.95zm9.72 0 10.91 10.96h-6.64l-10.91-10.95zm9.96 0 10.67 10.96h-6.64l-10.67-10.95zm9.72 0 10.91 10.96h-6.64l-10.9-10.95zm9.96 0 10.68 10.96h-6.64l-10.68-10.95zm5.46-4.37 7.11 7.3v6.82l-10.43-10.71Zm4.98-5.11 2.13 2.19v6.81l-5.45-5.6zm2.13-.98-.7-.73.7-.73zm-12.33 8.03h-46l10.9-11.2H792zm-46.24-48.2h6.64l10.67 11.2h-6.64zm48.14-11.2.71-.48v1.21zm.71 4.14v6.82l-5.7-5.84 3.33-3.41zm0 9.98v6.82l-10.67-10.71 3.32-3.4zm-1.9 8.28h-6.64l-10.9-11.2h6.63zm-9.96 0h-6.64l-10.67-11.2h6.64zm-9.72 0h-6.64l-10.9-11.2h6.63zm9.01-13.39h-36.05l10.91-11.2h36.05zm-36.05-47.96h6.64l10.68 11.2h-6.4zm153.82 114.18-10.91-52.1c3-1.51 5.41-3.71 7.2-6.6a18.47 18.47 0 0 0 2.76-9.7v-43.58c-.12-5-1.83-9.18-5.13-12.54-3.3-3.36-7.43-5.1-12.42-5.24h-60.24v129.76h28.46v-50.4h11.15l9.72 50.4zm-65.7-15.1-10.66 11.2V529.16l10.67 11.2zm62.38-96.15v6.57l-10.43-10.71 3.32-3.4zm-21.58 108.82h-.95l.48-.5zm4.27-5.6 5.45 5.6h-6.64l-2.13-2.2zm4.5-4.87 11.39 10.47h-7.12l-7.11-7.3zm-1.66-12.17 13.05 13.14 1.66 7.8-12.57-11.2zm-2.84-13.15 13.04 13.39 1.9 8.76-13.04-13.39zm-21.58-25.56h6.4l3.08 2.92-2.84 3.9zm9.72 0h2.13l-.94 1.22zm9.01 12.41 13.28 13.64 1.9 8.76-13.28-13.63zm-2.6-11.92 12.8 11.2 2.13 10.22-13.28-13.63zm2.84-.5h7.11l7.36 7.31c-1 .98-2.1 1.7-3.32 2.2zm6.88-48.92v45.03l-10.91-10.95v-22.89zm13.04 41.87v2.43a18.18 18.18 0 0 1-.47 3.65l-10.44-10.46v-6.82zm-10.9-21.42 10.9 11.2v6.81l-10.9-11.2zm0-9.99 10.9 11.2v6.58l-10.9-10.96zm0-10.22 10.9 11.2v6.81l-10.9-11.2zm-8.07-1.46h4.03l-2.13 1.95zm.24 3.65-3.09 3.4-7.11-7.05h6.64zm-4.75 5.11-2.37 2.2h-2.13l-10.68-10.96h6.64zm-2.84 25.56h-20.64v-20.93h20.64zm-4.75-23.37h-6.64l-10.9-10.95h6.63zm-9.96 0h-6.64l-10.67-10.95h6.64zm-8.06 11.93v6.58l-10.9-10.96v-6.82zm0 70.6v6.82l-10.9-11.2v-6.82zm-10.9-21.18 10.9 10.96v6.81l-10.9-10.95zm1.89-28.24-1.9 1.95v-4.14zm-1.9-5.36v-6.81l6.88 7.06-3.32 3.4zm0-10.22v-6.82l10.91 11.2v2.2l-2.37 2.18zm10.91-9-10.9-11.2v-6.82l10.9 11.2zm-21.58 92.26h-.95l.47-.49zm4.5-5.36 5.22 5.36h-6.64l-1.9-2.2zm4.98-5.11 10.2 10.47h-6.64l-6.88-7.06zm1.19-8.77 10.9 10.96v6.82l-10.9-10.96zm0-30.43 10.9 11.2v6.82l-10.9-11.2zm10.9 7.8-10.9-10.96v-6.82l10.9 10.96zm23.25-33.36 10.91 11.2h-43.4l10.67-11.2zm-16.36 13.64 8.53 8.76-1.9 2.19h-2.36l-10.91-10.95zm17.3.97 10.44 48.2-10.2 10.96-9-47.72zm14-2.44v-6.81l9.72 9.98a24.2 24.2 0 0 1-2.6 4.14zm5.46-55.26 1.66-1.7a17.41 17.41 0 0 1 3.55 7.3zm-7.36 4.14h-47.9l-10.67-11.2h56.2c1.9.02 3.67.35 5.3 1a16.1 16.1 0 0 1 4.43 2.65zm-45.77 52.59h6.4l10.92 10.95h-6.64zm104.73-16.07v-20.93h20.64v9.98l28.7-6.82v-14.6c-.13-5-1.84-9.19-5.14-12.54-3.3-3.36-7.43-5.1-12.42-5.24h-42.68c-4.99.13-9.13 1.88-12.42 5.24-3.3 3.35-5.01 7.53-5.13 12.53v43.58c.12 5.12 1.83 9.37 5.13 12.75 3.3 3.38 7.43 5.14 12.42 5.27h31.54v21.18h-20.63v-10.47l-28.46 7.06V637a18.25 18.25 0 0 0 5.13 12.66 17.23 17.23 0 0 0 12.42 5.35h42.68a17.23 17.23 0 0 0 12.42-5.35c3.3-3.43 5-7.65 5.13-12.66v-43.82c-.12-5.12-1.83-9.37-5.13-12.75-3.3-3.39-7.43-5.14-12.42-5.27zm41.5 73.76c-.6.5-1.23.97-1.92 1.4-.69.44-1.39.79-2.1 1.04l-9.73-9.98h6.4l7.36 7.54zm-18.5-45.28 10.92-10.95v45.04l-10.91-11.2zm4.75-12.66h4.5l-2.36 2.2zm.48 3.9-3.09 3.4-7.35-7.3h6.64zm18.73 39.44V637c-.04 1.21-.2 2.43-.47 3.65l-10.44-10.71v-6.82zm-10.9-21.18 10.9 10.95v6.82l-10.9-10.96zm0-10.23 10.9 11.2v6.82l-10.9-11.2zm0-9.98 10.9 10.96v6.81l-10.9-10.95zm3.79-6.33 7.11 7.3v6.82l-10.43-10.7zm3.55-3.65a14.3 14.3 0 0 1 2.1 3.38 16.7 16.7 0 0 1 1.22 3.92l-5.21-5.35zm-11.62-5.6c1.9.01 3.68.36 5.34 1.04a16.8 16.8 0 0 1 4.62 2.86l-7.11 7.3h-46l10.66-11.2h32.5zm-46.24 24.35c-1.19-.36-2.31-.8-3.38-1.34a14.12 14.12 0 0 1-3.02-2.07l1.66-1.7zm.24-10.23 10.2 10.47h-6.65l-6.87-7.06zm12.1-31.16-10.92-11.2v-6.81l10.91 11.2zm-10.92 19.23v-6.81l6.88 7.06-3.32 3.4zm10.91-15.82v6.57l-10.9-10.95v-6.82zm-10.9 5.6v-6.82l10.9 11.2v2.2l-2.37 2.18zm1.89 15.58-1.9 1.95v-4.14zm5.93 6.08 10.9 10.96h-6.63l-10.68-10.96zm9.96 0 10.9 10.96H941l-10.91-10.96Zm-16.13-50.14h6.64l10.67 10.95h-6.64zm27.27 10.95h-6.64l-10.9-10.95h6.64zm-7.58-10.95h6.64l8.53 8.76-2.37 2.19h-2.13zm38.65 2.67v6.58l-10.43-10.72 3.32-3.4zm-13.04-1.46v6.82l-10.91 11.2v-6.82zm-4.03 14.12 2.84 2.92-5.45 1.22-.71-.73zm4.98-5.11 5.69 6.09-5.22 1.21-3.8-3.9zm9.96 5.11-1.43.25-2.84-2.68zm-8.78-13.87 10.91 11.2v.97l-10.9-5.84zm-8.06-1.46H964l-2.13 1.94zm.24 3.65-3.09 3.4-7.11-7.05h6.64zm13.28-10.23 1.66-1.7a17.41 17.41 0 0 1 3.56 7.3zm-9.73-7.06c1.9.02 3.68.35 5.31 1 1.64.66 3.1 1.54 4.42 2.65l-7.35 7.55h-47.9l-7.12-7.3a14.46 14.46 0 0 1 9.96-3.9h42.68zm-57.86 15.58a16.62 16.62 0 0 1 3.56-9.98l7.11 7.3v49.18l-7.11 7.3a16.51 16.51 0 0 1-3.56-10.22v-43.58zm34.15 48.2h6.4l9.01 9.01-2.13 1.95h-2.6zm23.95 48.2h-43.4l10.67-11.2h21.82zm-46.48 12.91a13.76 13.76 0 0 1-6.4-3.4l1.66-1.47zm.24-9.98 10.2 10.47h-6.65l-6.87-7.06zm1.42-11.69 3.32-3.4 3.32 3.4-3.32 3.17zm4.98-5.1 3.32-3.42 2.37 2.2v2.18l-2.37 2.44zm4.98-5.12.71-.73v1.46zm-21.34 3.16 19.44-4.62-9.72 9.98zm13.04 11.93-1.9 2.2v-4.15zm5.93 6.09 10.9 11.2h-6.63l-10.67-11.2zm9.96 0 10.9 11.2H941l-10.91-11.2zm9.72 0 10.91 11.2h-6.64l-10.67-11.2zm-29.88-10.47v8.76l-7.11 7.3a16.53 16.53 0 0 1-2.58-4.53 15.4 15.4 0 0 1-.98-5.44v-12.18zm33.2 10.47h6.64l10.44 10.71a16.68 16.68 0 0 1-3.09.49h-3.08zm18.26-1.22v-6.82l9.73 9.74a24.2 24.2 0 0 1-2.61 4.14zm105.46-97.13c-.13-5.12-1.84-9.37-5.13-12.75a17.31 17.31 0 0 0-12.42-5.27H995.7v130h28.46v-50.63h31.78a17.31 17.31 0 0 0 12.42-5.27c3.3-3.38 5-7.63 5.13-12.75v-43.33zm-21.58 47.96h6.4l7.35 7.54a22.4 22.4 0 0 1-4.03 2.44zm-12.1 11.2h-6.64l-10.9-11.2h6.63zm-1.18-11.2 10.9 11.2h-6.64l-10.67-11.2zm-25.85-2.44 10.67-10.95h21.82l10.9 10.95h-29.64zm-4.04-48.44v99.56l-10.67 11.2V528.91Zm43.4.73h4.04l-2.14 1.95zm.24 3.65-3.08 3.4-7.12-7.05h6.64zm-4.74 5.11-2.37 2.2h-2.14l-10.67-10.96h6.64zm-2.85 25.56h-20.63v-20.93h20.63zm-4.74-23.37h-6.64l-10.91-10.95h6.64zm-9.96 0h-6.64l-10.67-10.95h6.64zm-8.06 79.12-10.91-10.95v-6.82l10.9 11.2zm0-60.62-10.91-10.95v-6.82l10.9 11.2zm0 64.03v6.82l-10.91-11.2v-6.82zM1013 584.9l-1.9 1.95v-4.14zm-1.9-5.36v-6.81l6.88 7.06-3.32 3.4zm0-10.22v-6.82l10.92 11.2v2.2l-2.38 2.18zm10.92-9-10.91-11.2v-6.82l10.9 11.2zm-21.59 92.26h-.7l.23-.5zm4.51-5.36 5.22 5.36h-6.64l-1.9-1.95zm4.98-5.11 10.2 10.47h-6.64l-6.88-7.06zm1.19-8.77 10.9 11.2v6.58l-10.9-10.96zm0-30.43 10.9 11.2v6.82l-10.9-11.2zm10.9 7.8-10.9-10.96v-6.82l10.9 11.2zm25.14-57.46 10.91-11.2v45.28l-10.9-11.2zm23.96 30.67v2.44c-.04 1.42-.2 2.72-.48 3.9l-10.43-10.72v-6.81zm-10.91-21.42 10.9 11.2v6.82l-10.9-11.2zm0-9.98 10.9 11.2v6.57l-10.9-10.95zm0-10.22 10.9 11.2v6.81l-10.9-11.2zm3.8-6.33 7.1 7.54v6.58l-10.43-10.72zm3.31-3.41a17.41 17.41 0 0 1 3.56 7.3l-5.22-5.6zm-9.01 5.84h-47.9l-10.68-11.2h56.2c1.91.02 3.68.35 5.31 1 1.64.66 3.11 1.54 4.42 2.65zm-45.77 52.58h6.4l10.91 11.2h-6.64zm29.4 0h6.65l10.43 10.72c-.48.12-1 .23-1.54.33a9.4 9.4 0 0 1-1.54.15h-3.08zm18.27-1.46v-6.81l9.72 9.98a24.2 24.2 0 0 1-2.6 4.14zm105.46-46.49c-.12-5.12-1.83-9.37-5.12-12.75a17.31 17.31 0 0 0-12.42-5.27h-42.7c-4.98.13-9.12 1.89-12.41 5.27-3.3 3.38-5 7.63-5.13 12.75V655h28.46v-30.19h20.87v30.2h28.45zm-15.41 69.87v27.02l-10.9 11.2v-27.27zm-18.26 9.49h-6.64l-10.91-11.2h6.64zm-16.13-24.59h21.58l10.91 11.2h-43.4zm-23.24 55.02h-.71l.24-.49zm4.5-5.6 5.22 5.6h-6.64l-1.9-2.19zm4.99-5.11 10.2 10.71h-6.65l-6.87-7.3zm41.97-30.92h4.51l-2.37 2.44zm6.17-69.14v65.5l-10.9-11.2v-43.1zm-5.93-1.21h4.03l-2.13 1.95zm.48 3.65-3.32 3.4-7.12-7.05h6.64zm-4.98 5.11-2.38 2.44h-1.9l-10.9-11.2h6.64zm-2.61 45.77h-20.87v-41.14h20.87zm-4.98-43.33h-6.64l-10.91-11.2h6.64zm-9.96 0h-6.4l-10.92-11.2h6.64zm-8.07 82.52v6.58l-10.9-10.96v-6.82zm-10.9-71.81 10.9 10.95v6.82l-10.9-10.96zm10.9 28-10.9-11.2v-6.82l10.9 11.2zm-10.9-38.23 10.9 11.2v6.82l-10.9-11.2zm2.13 52.59-2.14 2.19v-4.14zm-2.14-5.36v-6.81l6.88 7.3-3.32 3.16zm0-9.98v-6.82l10.91 10.96v2.19l-2.37 2.43zm10.91-29.46-10.9-10.95v-6.82l10.9 10.96zm-10.9 73.04 10.9 11.2v6.81l-10.9-11.2zm0-20.21 10.9 11.2v6.81l-10.9-11.2zm41.5 2.19-3.32 3.4-7.36-7.54h6.64zm-3.09 37.5h-.7l.47-.5zm4.5-5.6 5.46 5.6h-6.64l-1.9-2.2zm4.99-5.12 10.2 10.71h-6.64l-6.88-7.3zm1.42-8.76 10.67 11.2v6.81l-10.67-11.2zm0-9.99 10.67 11.2v6.58l-10.67-10.96zm0-10.22 10.67 11.2v6.81l-10.67-11.2zm0-9.98 10.67 10.95v6.82l-10.67-10.95zm0-10.23 10.67 11.2v6.82l-10.67-11.2zm0-9.98 10.67 10.96v6.81l-10.67-10.95zm0-10.22 10.67 11.2v6.81l-10.67-11.2zm0-9.98 10.67 10.95v6.82l-10.67-10.96zm0-10.23 10.67 11.2v6.82l-10.67-11.2zm0-9.98 10.67 10.96v6.81l-10.67-10.95zm3.56-6.57 7.11 7.55v6.81l-10.43-10.95Zm3.32-3.4a22.86 22.86 0 0 1 2.22 3.46c.64 1.22 1.08 2.5 1.34 3.83l-5.22-5.35zm-11.38-5.37c1.9.02 3.67.35 5.3 1 1.64.66 3.11 1.55 4.42 2.66l-7.12 7.54h-48.14l-7.11-7.3a14.46 14.46 0 0 1 9.96-3.9h42.69zm-47.2 12.9v99.82l-10.67 11.2v-108.1a16.52 16.52 0 0 1 3.56-10.22zm3.8 71.1h6.64l10.67 11.19h-6.64zm19.68 0h6.64l8.78 9.24-1.9 1.95h-2.85zm104.98 14.6h-20.87v-71.57h20.87v20.2l28.46-6.81v-24.6c-.12-5.1-1.83-9.36-5.13-12.74-3.3-3.38-7.43-5.14-12.42-5.27h-42.69a17.31 17.31 0 0 0-12.42 5.27c-3.3 3.38-5 7.63-5.12 12.75V637c.12 5.11 1.83 9.36 5.12 12.75a17.26 17.26 0 0 0 12.42 5.26h42.7c4.98-.12 9.12-1.88 12.41-5.26 3.3-3.39 5-7.64 5.13-12.75v-41.4l-28.46 6.82zm20.64 23.13c-.6.6-1.24 1.1-1.93 1.52-.69.41-1.39.8-2.1 1.15l-9.73-9.98h6.64l7.12 7.3zm-18.5-43.58 10.9 5.84v26.78l-10.9-11.2zm2.13-1.46 19.45-4.63-9.72 9.74zm21.82 30.67V637c.01.62-.01 1.27-.06 1.94a7.1 7.1 0 0 1-.41 1.95l-10.2-10.7v-6.83zm-10.67-21.42 10.67 11.2v6.81l-10.67-11.2zm3.8-6.09 6.87 7.06v6.82l-10.2-10.47zm4.97-5.1 1.9 2.18v6.82l-5.22-5.6zm1.9-1.96v.73l-.24-.48zm-14.94 39.2h-43.4l10.91-11.2h21.58zm-46.25 13.14c-1.3-.35-2.49-.8-3.58-1.33a13.6 13.6 0 0 1-3.06-2.07l1.66-1.7zm0-10.22 10.2 10.71h-6.64l-6.88-7.3zm12.1-81.8-10.9-10.95v-6.82l10.9 10.96zm-10.9 69.87v-6.82l6.87 7.06-3.32 3.41zm0-37.25 10.9 11.2v6.82l-10.9-11.2zm10.9 28-10.9-10.96v-6.81l10.9 10.95zm-10.9-37.98 10.9 10.96v6.81l-10.9-10.95zm0-10.22 10.9 11.2v6.81l-10.9-11.2zm0-9.98 10.9 10.95v6.82l-10.9-10.96zm0-10.23 10.9 11.2v6.82l-10.9-11.2zm0 67.43v-6.81l10.9 11.2v2.19l-2.37 2.19zm2.12 15.59-2.13 1.94v-4.14zm5.93 6.08 10.68 11.2h-6.64l-10.68-11.2zm9.73 0 10.9 11.2h-6.63l-10.91-11.2zm9.96 0 10.67 11.2h-6.64l-10.67-11.2zm-26.09-100.78h6.64l10.67 11.2h-6.4zm27.27 11.2h-6.64l-10.9-11.2h6.63zm-7.59-11.2h6.64l8.54 8.76-2.37 2.43h-1.9zm38.66 2.67v6.82l-10.43-10.95 3.32-3.41zm-13.04-1.46v17.04l-10.91 11.2v-17.04zm-4.03 24.35 2.84 2.92-5.45 1.22-.48-.73zm4.98-5.11 5.92 6.08-5.45 1.22-3.8-3.9zm10.2 5.1-1.67.25-2.6-2.68zm-8.78-13.87 10.67 11.2v.97l-10.67-5.84zm0-9.98 10.67 10.96v6.81l-10.67-10.95zm-8.3-1.7h4.03l-2.13 1.94zm.47 3.65-3.32 3.4-7.11-7.05h6.64zm13.05-9.98 1.66-1.95a24.3 24.3 0 0 1 2.22 3.47c.64 1.22 1.08 2.5 1.33 3.83zm-9.73-7.3c1.9.01 3.67.34 5.3 1 1.64.65 3.12 1.54 4.43 2.65l-7.12 7.54h-48.14l-7.12-7.3a14.46 14.46 0 0 1 9.97-3.9h42.68zm-57.86 15.82a16.52 16.52 0 0 1 3.55-10.23l7.12 7.3v99.82l-7.12 7.3a16.51 16.51 0 0 1-3.56-10.22v-93.97zm43.87 98.6h6.64l10.44 10.7c-.91.29-1.94.45-3.09.49h-3.08zm18.5-1.47v-6.82l9.48 9.99a31.6 31.6 0 0 1-1.12 2.16c-.4.7-.9 1.36-1.48 1.97zm55.88-14.36v-21.18h39.37v-29.46h-39.37v-20.93H1350V525h-77.79v130H1350v-29.2zm-15.42-85.7v99.82l-10.67 11.2V528.9Zm31.3 11.94h-6.63l-10.91-11.2h6.64zm-.94-11.2 10.67 11.2h-6.4l-10.91-11.2zm9.72 0 10.91 11.2h-6.64l-10.9-11.2zm9.96 0 10.67 11.2h-6.4l-10.9-11.2zm5.22-4.87 7.11 7.55v6.81l-10.43-10.95zm4.98-4.87 2.13 2.2v6.8l-5.45-5.6zm2.13-2.43v1.46l-.47-.73zm-60.7 9.73-10.68-11.2h69.49l-10.68 11.2zm11.61 75.71v6.82l-10.9-10.96v-6.81zm0-50.39v6.82l-10.9-11.2v-6.82zm-8.77 71.81-2.14 1.95v-4.14zm-2.14-5.35v-6.82l6.88 7.06-3.32 3.41zm0-10.23v-6.81l10.91 11.2v2.19l-2.37 2.19zm10.91-9-10.9-11.2v-6.82l10.9 11.2zm-8.77-26.05-2.14 2.19v-4.14zm-2.14-5.36v-6.81l6.88 7.06-3.32 3.4zm0-9.98v-6.81l10.91 10.95v2.2l-2.37 2.43zm0-20.2v-6.82l10.91 10.95v6.82zm-10.67 103.21h-.7l.11-.12.12-.12zm4.5-5.35 5.23 5.35h-6.64l-1.9-1.94zm4.99-5.11 10.2 10.46H1290l-6.88-7.06zm9.25-.5 10.67 10.96h-6.64l-10.67-10.95zm9.72 0 10.91 10.96h-6.64l-10.91-10.95zm9.96 0 10.67 10.96h-6.64l-10.67-10.95zm9.72 0 10.91 10.96h-6.64l-10.9-10.95zm9.96 0 10.68 10.96h-6.64l-10.68-10.95zm5.46-4.37 7.11 7.3v6.82l-10.43-10.71Zm4.98-5.11 2.13 2.19v6.81l-5.45-5.6zm2.13-.98-.7-.73.7-.73zm-12.33 8.03h-46l10.9-11.2h45.77zm-46.24-48.2h6.64l10.67 11.2h-6.64zm48.14-11.2.71-.48v1.21zm.71 4.14v6.82l-5.7-5.84 3.33-3.41zm0 9.98v6.82l-10.67-10.71 3.32-3.4zm-1.9 8.28h-6.64l-10.9-11.2h6.63zm-9.96 0h-6.64l-10.67-11.2h6.64zm-9.72 0h-6.64l-10.9-11.2h6.63zm9.01-13.39h-36.05l10.91-11.2h36.05zm-36.05-47.96h6.64l10.68 11.2h-6.4z" style="font-style:normal;font-weight:400;font-size:40px;line-height:125%;font-family:Sans;letter-spacing:0;word-spacing:0;fill:#000;stroke-width:1.10239" transform="translate(-295 -470)"/><g style="font-style:normal;font-weight:400;font-size:40px;line-height:125%;font-family:Sans;letter-spacing:0;word-spacing:0;fill:#606060;fill-opacity:1"><path d="m390.1 209.61 4.56-10.64h-4.96l-3.52 8.24h-.52v-8.24h-4.8v21.36h4.8v-8.32h.56l3.6 8.32h4.84zm19.5 10.72-1.84-8.56a2.96 2.96 0 0 0 1.68-2.68v-7.16a2.97 2.97 0 0 0-2.96-2.92h-10.16v21.32h4.8v-8.28H403l1.64 8.28zm-5-13.08h-3.48v-3.44h3.48zm20.55-5.32a2.95 2.95 0 0 0-2.96-2.96h-7.2a2.95 2.95 0 0 0-2.96 2.96v18.4h4.8v-4.96h3.52v4.96h4.8zm-4.8 8.6h-3.52v-6.76h3.52zm16.46-.92 4.56-10.64h-4.96l-3.52 8.24h-.52v-8.24h-4.8v21.36h4.8v-8.32h.56l3.6 8.32h4.84zm9.19-10.64a2.95 2.95 0 0 0-2.96 2.96v15.44a2.96 2.96 0 0 0 2.96 2.96h7.2a2.96 2.96 0 0 0 2.96-2.96v-15.44a2.95 2.95 0 0 0-2.96-2.96zm5.32 16.52h-3.48v-11.72h3.48zm23.79-16.52-.24 16.52h-.48l-2.88-16.52h-4.56l-2.8 16.52h-.56l-.2-16.52h-4.8l.56 21.36h8.84l1.24-7.24 1.28 7.24h8.84l.56-21.36z" font-size="40" style="fill:#606060;fill-opacity:1" transform="matrix(2.524 0 0 2.5749 -531.29 -304.33)"/></g><path d="M89.58 220.9h340v5h-340zm659.97 0h340v5h-340z" style="fill:#606060;fill-opacity:1;stroke-width:.965347" transform="translate(-34.58 12.1)"/></svg>
